<?xml version="1.0" encoding="utf-8"?>
<svg width="261" height="586" viewBox="0 0 261 586" fill="none" xmlns="http://www.w3.org/2000/svg">
  <rect x="-7.22" y="-4.287" width="275.9" height="599.274" style="stroke: rgb(212, 212, 212); fill: rgb(190, 62, 62); pointer-events: none;"/>
  <g style="">
    <path d="M67.1749 323.966C65.7621 323.6 64.3494 322.318 63.4841 320.597C62.9367 319.498 62.8661 319.187 62.8661 317.997C62.8661 317.063 62.9897 316.312 63.2369 315.616L63.6077 314.572L61.0825 311.898C59.6874 310.415 56.6501 307.247 54.3544 304.848L50.1692 300.49L49.4982 300.929C47.3791 302.266 45.313 302.797 42.7701 302.651C39.6974 302.486 36.925 300.984 35.1061 298.494C34.594 297.798 34.0642 297.23 33.9406 297.23C33.5874 297.212 30.9562 298.201 28.2368 299.354L25.8351 300.38L25.7292 301.589C25.5702 303.401 25.1818 304.354 24.1399 305.452C22.321 307.357 20.0077 307.961 17.765 307.119C15.434 306.258 13.9859 304.409 13.6681 301.882C13.5445 300.984 13.8623 299.208 14.3215 298.292C14.8159 297.285 16.4582 295.838 17.6237 295.381C18.4184 295.069 18.9128 294.996 20.043 295.051C21.7029 295.124 22.7801 295.582 23.9456 296.754L24.705 297.505L27.3185 296.424C28.7489 295.82 30.5677 295.088 31.3447 294.758L32.7575 294.172L32.7045 291.993C32.6515 290.07 32.7045 289.594 33.093 288.202C33.5168 286.737 33.8523 285.931 34.5234 284.869C34.7882 284.466 34.6646 284.32 29.9673 279.412L25.1641 274.376L24.1046 274.797C20.4138 276.262 16.2463 273.552 15.9461 269.487C15.6636 265.879 18.2241 262.839 21.7029 262.638C23.6101 262.528 24.8286 263.022 26.1707 264.432C27.4068 265.751 27.6364 266.19 27.9189 267.967C28.1308 269.322 28.1308 269.45 27.707 270.769L27.2832 272.16L32.0688 277.215L36.872 282.251L37.7373 281.701C39.1677 280.749 41.3044 280.163 43.3529 280.145C45.2247 280.126 46.0194 280.291 47.8559 281.042L48.9861 281.518L49.6748 280.712C50.3282 279.943 50.7167 279.43 53.5774 275.566L54.9018 273.772L54.3368 272.545C53.8423 271.446 53.7893 271.117 53.7893 269.743C53.807 267.912 54.1602 266.96 55.3786 265.549C56.5088 264.249 57.9215 263.645 59.8111 263.645C61.0825 263.645 61.4004 263.718 62.3893 264.213C64.1905 265.128 65.5679 266.996 65.7975 268.827C65.8504 269.285 65.8151 270.164 65.7268 270.769C65.3736 272.966 64.3847 274.449 62.6188 275.402C61.3121 276.098 60.0053 276.281 58.416 275.969C57.3564 275.75 57.1799 275.768 56.9856 276.006C56.8797 276.171 56.2086 277.068 55.5023 278.02C54.8135 278.973 54.1425 279.87 54.0012 280.016C53.5421 280.492 51.3877 283.276 51.3877 283.386C51.3877 283.441 51.7232 283.917 52.1294 284.448C54.7959 287.927 55.0961 293.165 52.8711 297.084C52.5355 297.67 52.2707 298.201 52.2707 298.274C52.2707 298.347 55.3257 301.57 59.0517 305.416L65.8328 312.448L66.3272 312.173C66.6098 312.027 67.2808 311.807 67.8282 311.697C70.4771 311.129 73.0023 312.429 74.2561 315.012C74.8212 316.184 74.8742 316.458 74.8742 317.813C74.8742 318.747 74.7682 319.571 74.6093 319.993C73.8676 321.842 72.0487 323.545 70.4418 323.93C69.5588 324.15 67.9872 324.149 67.1749 323.966ZM69.965 320.835C71.2011 320.469 72.2253 318.674 71.9781 317.301C71.8192 316.44 70.9892 315.286 70.2299 314.92C69.0644 314.334 67.634 314.627 66.6804 315.616C65.7092 316.623 65.5679 318.253 66.3449 319.516C67.1395 320.798 68.4463 321.256 69.965 320.835ZM20.5551 304.262C22.3033 303.713 23.1333 302.266 22.7448 300.435C22.4623 299.043 21.1025 297.944 19.6368 297.944C18.9834 297.944 17.7473 298.64 17.3058 299.263C16.5465 300.325 16.6701 302.577 17.5177 303.383C17.9592 303.804 19.2307 304.537 19.5132 304.537C19.6015 304.537 20.0783 304.409 20.5551 304.262ZM45.26 299.409C46.0017 299.208 46.7964 298.952 47.0083 298.842C48.8448 297.816 50.5401 295.802 51.0698 294.025C51.6703 291.974 51.5466 289.63 50.7696 287.964C50.1869 286.737 48.9154 285.089 48.2797 284.759C47.9972 284.613 47.7323 284.43 47.6793 284.375C47.3085 283.899 44.589 283.111 43.3175 283.111C42.5759 283.111 40.6864 283.624 39.9094 284.027C38.5496 284.759 37.0486 286.334 36.3422 287.781C35.8654 288.751 35.6182 290.546 35.7065 292.231C35.8125 294.117 36.3952 295.509 37.6313 296.846C39.1324 298.439 40.2272 299.116 41.9225 299.501C43.3882 299.831 43.6707 299.831 45.26 299.409ZM61.5416 272.398C62.248 271.849 62.8484 270.695 62.8661 269.89C62.8837 267.692 60.2702 265.916 58.469 266.886C57.6213 267.344 56.862 268.388 56.8267 269.157C56.756 271.08 57.1622 271.959 58.4513 272.71C59.3343 273.222 60.694 273.076 61.5416 272.398ZM23.4865 271.721C25.0228 270.915 25.5526 268.864 24.6343 267.253C24.0516 266.245 23.7337 266.062 22.1974 265.952C20.7317 265.861 20.043 266.172 19.4249 267.216C19.0011 267.948 18.9481 269.688 19.319 270.439C20.1136 272.014 21.8795 272.563 23.4865 271.721Z" fill="white"/>
    <path d="M172.617 312.045C171.893 311.88 171.469 311.624 170.904 311.001C169.827 309.829 169.88 310.983 169.88 286.646V264.414L170.321 263.956C170.763 263.499 170.851 263.48 172.546 263.553C174.065 263.59 174.365 263.663 174.577 263.956C174.789 264.268 174.824 267.619 174.824 286.334C174.824 307.449 174.842 308.364 175.142 308.767C175.442 309.133 175.636 309.17 177.102 309.188C178.674 309.207 178.762 309.225 179.168 309.719C179.645 310.305 179.733 311.239 179.345 311.77C179.133 312.082 178.833 312.118 176.131 312.137C174.489 312.155 172.917 312.1 172.617 312.045Z" fill="white"/>
    <path d="M184.607 312.1C183.194 311.953 183.283 313.107 183.336 297.065C183.371 285.638 183.442 282.708 183.618 282.525C183.777 282.36 184.413 282.287 185.667 282.287C187.221 282.287 187.556 282.342 187.874 282.635L188.245 282.983V297.193C188.227 308.913 188.192 311.459 187.998 311.734C187.733 312.082 186.073 312.265 184.607 312.1Z" fill="white"/>
    <path d="M195.856 311.844C195.097 311.001 195.203 310.159 196.139 309.518C196.562 309.243 197.127 309.207 200.871 309.207C204.721 309.207 205.162 309.17 205.639 308.859C207.352 307.742 208.535 304.83 208.023 302.925C207.617 301.295 205.78 299.977 202.284 298.768C198.152 297.34 196.05 295.948 195.132 294.007C194.496 292.689 194.408 290.015 194.938 288.33C195.362 286.975 196.262 285.437 197.021 284.759C199.723 282.342 199.847 282.305 205.357 282.232C207.811 282.196 210.018 282.214 210.23 282.269C210.954 282.452 211.237 284.118 210.601 284.54C210.495 284.613 208.57 284.704 206.345 284.759L202.266 284.851L201.401 285.51C199.635 286.81 198.787 289.264 199.441 291.059C200.059 292.725 201.525 293.696 205.462 295.051C208.5 296.095 209.913 296.846 210.972 297.981C212.367 299.464 212.95 301.204 212.968 303.804C212.968 306.057 212.438 307.485 211.078 308.95C209.948 310.177 209.153 310.726 207.264 311.551L205.992 312.118L201.118 312.191L196.227 312.265L195.856 311.844Z" fill="white"/>
    <path d="M226.653 312.027C226.459 311.898 226.247 311.715 226.177 311.605C226.106 311.496 226.035 305.544 226.035 298.366C226.035 285.657 226.035 285.309 225.7 285.126C225.488 285.016 224.004 284.942 222.08 284.942C220.049 284.942 218.654 284.869 218.371 284.741C217.877 284.503 217.718 284.027 217.859 283.239C218.053 282.214 218.195 282.196 228.137 282.196C233.417 282.196 237.319 282.269 237.584 282.379C238.167 282.598 238.432 283.166 238.308 283.917C238.132 284.833 237.708 284.942 234.512 284.942C231.81 284.942 230.874 285.089 230.591 285.547C230.521 285.675 230.45 291.535 230.45 298.604C230.45 308.566 230.397 311.496 230.238 311.734C229.938 312.137 227.201 312.356 226.653 312.027Z" fill="white"/>
    <path d="M184.731 278.295C184.007 278.039 183.512 277.379 183.3 276.409C182.877 274.559 184.431 273.113 186.426 273.497C187.309 273.662 188.245 274.687 188.245 275.475C188.245 276.647 187.909 277.416 187.15 277.984C186.373 278.57 185.737 278.661 184.731 278.295Z" fill="white" style=""/>
    <path d="M99.5967 312.557C95.3762 311.605 94.0165 310.946 91.191 308.547C90.5023 307.943 89.8843 307.467 89.8313 307.467C89.7607 307.467 89.7253 308.346 89.7253 309.444C89.743 310.525 89.743 311.55 89.7253 311.733C89.7077 312.008 89.4605 312.045 87.0765 312.045C84.8338 312.045 84.4276 312.008 84.3394 311.752C84.1981 311.385 84.1981 265.091 84.3394 264.725C84.4276 264.469 84.8338 264.432 86.9705 264.432C88.5775 264.432 89.5488 264.505 89.6194 264.634C89.69 264.725 89.7253 268.443 89.7253 272.874C89.69 278.698 89.743 280.913 89.8843 280.913C89.9902 280.913 90.5906 280.456 91.2264 279.906C93.8222 277.617 96.9126 276.299 100.462 275.932C105.371 275.42 109.645 276.738 113.494 279.961C116.055 282.085 118.245 285.656 119.198 289.209C120.205 292.963 119.887 298.31 118.492 301.716C116.814 305.763 113.247 309.518 109.344 311.33C108.161 311.898 107.773 311.99 105.159 312.502C103.605 312.814 100.833 312.832 99.5967 312.557ZM105.336 306.881C107.437 306.258 109.239 305.159 110.722 303.621C112.788 301.497 113.901 299.116 114.289 295.966C114.889 291.15 112.629 285.894 108.885 283.404C106.307 281.701 105 281.28 102.21 281.28C99.7733 281.28 98.2193 281.664 96.2945 282.726C92.3742 284.887 89.7077 289.703 89.7077 294.575C89.7077 297.816 91.403 301.625 93.9458 304.042C94.9877 305.049 97.2657 306.331 98.8904 306.844C100.956 307.503 103.252 307.503 105.336 306.881Z" fill="white" style=""/>
    <path d="M140.054 312.301C137.405 311.734 134.985 310.543 133.061 308.877C132.284 308.199 131.577 307.65 131.471 307.65C131.365 307.65 131.277 308.437 131.259 309.646C131.259 310.763 131.189 311.752 131.118 311.844C130.959 312.137 126.227 312.118 125.944 311.825C125.626 311.496 125.644 265.183 125.962 264.744C126.138 264.487 126.562 264.432 128.522 264.414C130.112 264.396 130.959 264.469 131.083 264.616C131.242 264.762 131.277 266.96 131.242 272.875C131.206 279.192 131.242 280.914 131.418 280.914C131.542 280.914 131.948 280.602 132.354 280.2C135.656 276.922 141.078 275.273 146.305 275.969C153.227 276.867 159.072 282.287 160.891 289.484C161.35 291.315 161.527 295.326 161.244 297.395C160.962 299.299 160.185 301.625 159.161 303.603C158.507 304.83 157.942 305.581 156.212 307.357C153.898 309.756 152.927 310.433 150.349 311.514C147.135 312.869 143.797 313.125 140.054 312.301ZM146.852 306.899C151.214 305.526 154.075 302.559 155.417 298.036C155.717 297.01 155.788 296.296 155.788 294.447C155.788 291.846 155.593 290.912 154.516 288.495C153.298 285.748 151.585 283.917 148.989 282.598C146.835 281.5 145.934 281.28 143.55 281.28C141.696 281.28 141.325 281.335 139.965 281.829C139.135 282.141 137.97 282.672 137.387 283.038C134.332 284.888 131.807 288.971 131.401 292.652C130.783 298.311 133.378 303.347 138.146 305.855C140.301 306.972 141.396 307.247 143.674 307.265C145.21 307.284 145.916 307.192 146.852 306.899Z" fill="white" style=""/>
    <path d="M91.7385 327.464C91.297 327.354 91.1911 327.226 91.1557 326.732C91.0851 326.091 91.1911 326.054 91.9327 326.329C92.4802 326.549 93.0629 326.42 93.0629 326.072C93.0629 325.926 92.798 325.724 92.4978 325.596C91.5796 325.212 91.1204 324.699 91.1204 324.021C91.1204 323.161 91.7915 322.666 92.957 322.666C94.0518 322.666 94.352 322.849 94.2637 323.417C94.2107 323.82 94.1401 323.857 93.3808 323.802C92.7097 323.747 92.5331 323.802 92.5331 324.003C92.5331 324.168 92.7627 324.333 93.0453 324.406C93.3278 324.461 93.7693 324.717 94.0342 324.974C94.6522 325.56 94.5992 326.585 93.9459 327.08C93.4338 327.464 92.4802 327.629 91.7385 327.464Z" fill="white" style=""/>
    <path d="M100.356 327.354C99.4378 326.933 99.0317 326.072 99.12 324.791C99.1729 323.857 99.2612 323.637 99.738 323.197C100.197 322.758 100.462 322.666 101.186 322.666C101.945 322.666 102.175 322.758 102.705 323.271C103.252 323.783 103.358 324.021 103.429 324.791C103.482 325.413 103.411 325.871 103.182 326.329C102.669 327.336 101.363 327.812 100.356 327.354ZM101.786 326.036C102.334 325.486 102.069 324.003 101.416 323.838C100.798 323.673 100.391 324.15 100.409 325.047C100.444 326.219 101.133 326.713 101.786 326.036Z" fill="white" style=""/>
    <path d="M105.318 327.336C103.676 326.86 103.552 323.49 105.177 322.849C105.813 322.593 106.89 322.63 107.261 322.904C107.543 323.106 107.561 323.216 107.384 323.564C107.208 323.893 107.066 323.948 106.66 323.857C105.813 323.673 105.424 324.021 105.424 324.955C105.424 326.036 105.777 326.384 106.678 326.237C107.455 326.091 107.72 326.384 107.384 327.025C107.155 327.464 106.237 327.611 105.318 327.336Z" fill="white" style=""/>
    <path d="M116.62 327.336C115.931 327.043 115.843 326.787 115.843 325.23C115.843 324.15 115.79 323.948 115.455 323.692C115.048 323.417 115.048 323.417 115.402 323.087C115.596 322.904 115.896 322.538 116.073 322.263C116.479 321.604 117.079 321.567 117.079 322.19C117.079 322.575 117.185 322.648 117.662 322.703C118.139 322.739 118.227 322.831 118.227 323.216C118.227 323.6 118.139 323.692 117.644 323.728L117.062 323.783L117.114 325.01L117.167 326.237L117.75 326.292C118.209 326.347 118.315 326.439 118.315 326.787C118.315 327.025 118.262 327.263 118.192 327.299C117.768 327.537 117.097 327.556 116.62 327.336Z" fill="white" style=""/>
    <path d="M124.726 327.244C123.949 326.768 123.79 326.365 123.79 324.955C123.79 323.857 123.843 323.692 124.302 323.197C124.849 322.63 125.626 322.501 126.28 322.849C126.597 323.032 126.615 322.978 126.615 322.025V321L127.233 321.055L127.869 321.11V324.223C127.886 327.281 127.886 327.336 127.498 327.391C127.304 327.427 127.021 327.372 126.898 327.263C126.721 327.116 126.491 327.134 126.032 327.336C125.255 327.666 125.397 327.684 124.726 327.244ZM126.403 326.109C126.527 325.981 126.615 325.505 126.615 325.01C126.615 324.168 126.333 323.765 125.75 323.765C125.132 323.765 124.796 325.175 125.202 325.981C125.414 326.365 126.085 326.439 126.403 326.109Z" fill="white" style=""/>
    <path d="M136.734 327.391C136.31 327.281 136.133 327.098 135.974 326.603C135.603 325.413 136.186 324.644 137.617 324.498C138.111 324.443 138.535 324.296 138.588 324.168C138.694 323.838 137.917 323.6 137.334 323.802C136.999 323.93 136.769 323.93 136.592 323.765C135.904 323.179 136.61 322.666 138.111 322.666C138.817 322.666 139.082 322.758 139.435 323.124C139.859 323.564 139.877 323.673 139.824 325.45C139.771 327.244 139.753 327.336 139.365 327.391C139.135 327.428 138.923 327.336 138.87 327.153C138.782 326.951 138.694 326.915 138.535 327.061C138.129 327.409 137.316 327.556 136.734 327.391ZM138.288 326.127C138.623 325.779 138.694 325.377 138.394 325.395C138.323 325.413 138.076 325.413 137.829 325.413C137.352 325.413 137.104 325.779 137.281 326.237C137.422 326.622 137.846 326.585 138.288 326.127Z" fill="white" style=""/>
    <path d="M145.687 327.482C144.963 327.208 144.804 326.841 144.804 325.486C144.804 324.333 144.751 324.095 144.415 323.765L144.009 323.38L144.398 323.032C144.627 322.849 144.874 322.483 144.98 322.208C145.21 321.604 145.916 321.622 146.005 322.245C146.04 322.538 146.199 322.666 146.623 322.703C147.099 322.739 147.205 322.849 147.241 323.271C147.294 323.728 147.258 323.765 146.658 323.765H146.022L146.075 325.01L146.128 326.237H146.658C147.082 326.255 147.205 326.347 147.241 326.677C147.276 326.915 147.241 327.171 147.152 327.244C146.941 327.446 146.005 327.611 145.687 327.482Z" fill="white" style=""/>
    <path d="M85.2047 327.263C85.1517 327.153 85.1517 326.97 85.2224 326.86C85.293 326.75 85.7168 325.486 86.1936 324.076C86.6527 322.666 87.1648 321.439 87.3238 321.348C87.465 321.256 87.8535 321.201 88.1714 321.238C88.7365 321.293 88.7365 321.311 89.6548 323.948C90.7849 327.208 90.8026 327.427 89.9726 327.427C89.4429 327.427 89.3369 327.354 89.2486 326.933C89.0544 326.127 88.8424 325.962 87.9242 325.962C87.0942 325.962 87.0412 325.999 86.7587 326.658C86.4938 327.208 86.3349 327.354 85.8757 327.391C85.5755 327.427 85.2753 327.354 85.2047 327.263ZM88.4716 324.552C88.4716 323.966 87.9772 322.556 87.8889 322.849C87.4297 324.204 87.3768 324.552 87.6063 324.699C88.0125 324.974 88.4716 324.882 88.4716 324.552Z" fill="white" style=""/>
    <path d="M95.2173 327.208C95.0937 327.079 95.0054 326.786 95.0054 326.548C95.0054 326.072 95.0937 326.072 96.4888 326.439C96.8773 326.53 96.9479 326.493 96.9479 326.164C96.9479 325.889 96.7537 325.688 96.2416 325.486C94.9525 324.955 94.6699 323.509 95.7294 322.941C96.2945 322.63 97.2481 322.593 97.9015 322.849C98.7845 323.197 98.237 324.131 97.3541 323.82C96.3122 323.435 96.065 324.003 97.0892 324.424C98.5372 325.047 98.961 326.091 98.0958 326.97C97.7426 327.354 97.4954 327.427 96.5418 327.427C95.906 327.427 95.341 327.336 95.2173 327.208Z" fill="white" style=""/>
    <path d="M108.497 327.189C108.462 327.061 108.444 325.999 108.462 324.845L108.515 322.758L109.097 322.703L109.662 322.648V325.029V327.428H109.133C108.832 327.428 108.55 327.318 108.497 327.189Z" fill="white" style=""/>
    <path d="M110.898 327.061C110.439 326.585 110.422 325.541 110.898 325.047C111.252 324.68 111.64 324.552 112.576 324.461C112.912 324.424 113.106 324.296 113.106 324.131C113.106 323.93 112.894 323.856 112.311 323.838C111.093 323.801 111.075 323.783 111.075 323.399C111.075 322.575 113.194 322.373 114.024 323.106C114.501 323.527 114.519 323.637 114.572 325.395C114.625 327.006 114.607 327.263 114.342 327.372C114.165 327.427 113.883 327.391 113.689 327.263C113.459 327.116 113.265 327.116 113.018 327.244C112.435 327.556 111.287 327.464 110.898 327.061ZM112.929 326.145C113.353 325.651 113.176 325.248 112.576 325.376C112.064 325.468 111.852 325.798 112.029 326.237C112.17 326.622 112.558 326.585 112.929 326.145Z" fill="white" style=""/>
    <path d="M119.799 327.061C119.075 326.585 118.739 325.376 119.022 324.314C119.569 322.19 122.324 322.062 122.924 324.131C123.26 325.267 123.119 325.413 121.582 325.413C120.54 325.413 120.258 325.468 120.258 325.688C120.258 325.834 120.452 326.091 120.682 326.237C121.017 326.457 121.247 326.493 121.865 326.347C122.677 326.146 122.907 326.2 122.907 326.603C122.907 327.464 120.858 327.757 119.799 327.061ZM121.671 324.149C121.671 323.783 121.105 323.527 120.682 323.71C120.328 323.838 120.381 324.278 120.752 324.369C121.423 324.552 121.671 324.497 121.671 324.149Z" fill="white" style=""/>
    <path d="M131.189 327.208C131.153 327.079 131.136 325.688 131.171 324.113L131.224 321.256L132.495 321.329C134.173 321.421 134.721 321.659 135.038 322.428C135.533 323.692 134.65 325.23 133.431 325.23C132.619 325.23 132.407 325.45 132.442 326.255C132.495 327.391 132.478 327.427 131.842 327.427C131.507 327.427 131.224 327.318 131.189 327.208ZM133.555 323.875C134.208 323.362 133.749 322.483 132.813 322.483C132.531 322.483 132.442 322.593 132.442 323.014C132.442 324.095 132.849 324.424 133.555 323.875Z" fill="white" style=""/>
    <path d="M141.007 327.208C140.954 327.061 140.936 325.999 140.954 324.864C141.007 322.996 141.042 322.758 141.325 322.703C141.502 322.666 141.802 322.776 141.996 322.959C142.314 323.252 142.349 323.252 142.649 322.978C142.826 322.794 143.197 322.666 143.444 322.666C143.85 322.666 143.921 322.74 143.921 323.216C143.921 323.527 143.815 323.802 143.709 323.838C142.349 324.205 142.42 324.095 142.332 325.779L142.243 327.336L141.66 327.391C141.307 327.428 141.06 327.354 141.007 327.208Z" fill="white" style=""/>
    <path d="M148.159 325.138C148.159 323.179 148.194 322.813 148.442 322.721C148.6 322.666 148.883 322.703 149.077 322.831C149.307 322.978 149.501 322.978 149.748 322.849C150.472 322.447 151.885 322.74 152.132 323.344C152.309 323.783 152.379 326.97 152.221 327.244C152.15 327.354 151.867 327.428 151.585 327.391L151.073 327.336L151.02 325.724C150.967 324.205 150.949 324.113 150.508 323.893C150.119 323.71 150.013 323.747 149.731 324.113C149.466 324.443 149.395 324.845 149.395 325.981V327.428H148.777H148.159V325.138Z" fill="white" style=""/>
    <path d="M154.022 327.135C152.803 326.256 152.821 323.82 154.039 322.978C154.975 322.355 156.653 322.758 156.988 323.692C157.094 323.948 157.165 324.443 157.165 324.791V325.413H155.858C154.446 325.413 154.163 325.56 154.622 326.054C154.852 326.292 155.17 326.347 155.911 326.292C156.741 326.256 156.9 326.292 156.953 326.567C156.988 326.75 156.918 327.006 156.812 327.153C156.512 327.537 154.552 327.519 154.022 327.135ZM155.911 324.205C156.088 324.04 155.664 323.765 155.223 323.765C154.675 323.765 154.428 324.003 154.605 324.333C154.71 324.498 155.699 324.406 155.911 324.205Z" fill="white" style=""/>
    <path d="M158.172 327.318C158.013 327.153 158.013 323.362 158.154 322.959C158.295 322.593 158.825 322.575 159.108 322.923C159.284 323.161 159.39 323.161 159.902 322.904C160.662 322.52 161.085 322.684 161.015 323.344C160.979 323.747 160.856 323.875 160.503 323.911C159.726 324.003 159.478 324.461 159.425 325.962L159.372 327.336L158.843 327.391C158.543 327.427 158.242 327.391 158.172 327.318Z" fill="white" style=""/>
    <path d="M161.58 327.153C161.474 327.006 161.403 326.75 161.439 326.567C161.509 326.237 161.65 326.219 162.816 326.347C163.717 326.457 163.628 325.963 162.639 325.486C160.768 324.552 161.209 322.666 163.31 322.666C164.335 322.666 164.847 322.996 164.688 323.545C164.582 323.893 164.476 323.912 163.681 323.82C162.957 323.728 162.834 323.765 162.904 323.985C162.957 324.131 163.293 324.351 163.628 324.479C164.953 324.974 165.341 326.109 164.494 326.97C164.123 327.354 163.911 327.428 162.94 327.428C162.163 327.428 161.739 327.336 161.58 327.153Z" fill="white" style=""/>
    <path d="M108.444 321.897C108.214 321.274 108.391 321.018 109.08 321.018C109.662 321.018 109.68 321.036 109.627 321.622C109.592 322.117 109.486 322.226 109.08 322.263C108.709 322.318 108.568 322.226 108.444 321.897Z" fill="white" style=""/>
  </g>
</svg>